<svg width="1em" height="1em" viewBox="0 0 20 20" fill="none" xmlns="http://www.w3.org/2000/svg"><path fill-rule="evenodd" clip-rule="evenodd" d="M10.7143 6.0625H16.4286C17.3754 6.06359 18.2832 6.42611 18.9527 7.07053C19.6222 7.71495 19.9989 8.58865 20 9.5V12H18.5714V9.5C18.5709 8.95316 18.3449 8.42887 17.9432 8.0422C17.5414 7.65552 16.9967 7.43805 16.4286 7.4375H10.7143V12H12V13.375H1.42857V16H0V4H1.42857V12H9.28571V7.4375C9.28609 7.07294 9.43672 6.72341 9.70455 6.46563C9.97238 6.20785 10.3355 6.06286 10.7143 6.0625Z" fill="currentColor"></path><path d="M5.25 7.28571C5.44072 7.28571 5.62715 7.34227 5.78573 7.44823C5.9443 7.55418 6.0679 7.70478 6.14088 7.88098C6.21387 8.05718 6.23296 8.25107 6.19576 8.43812C6.15855 8.62518 6.06671 8.79699 5.93185 8.93185C5.797 9.06671 5.62518 9.15855 5.43812 9.19576C5.25107 9.23296 5.05718 9.21387 4.88098 9.14088C4.70478 9.0679 4.55418 8.9443 4.44823 8.78573C4.34227 8.62715 4.28571 8.44072 4.28571 8.25C4.28606 7.99436 4.38776 7.74929 4.56852 7.56852C4.74929 7.38776 4.99436 7.28605 5.25 7.28571ZM5.25 6C4.80499 6 4.36998 6.13196 3.99997 6.37919C3.62996 6.62643 3.34157 6.97783 3.17127 7.38896C3.00097 7.8001 2.95642 8.2525 3.04323 8.68895C3.13005 9.12541 3.34434 9.52632 3.65901 9.84099C3.97368 10.1557 4.37459 10.3699 4.81105 10.4568C5.2475 10.5436 5.6999 10.499 6.11104 10.3287C6.52217 10.1584 6.87357 9.87004 7.12081 9.50003C7.36804 9.13002 7.5 8.69501 7.5 8.25C7.5 7.65326 7.26295 7.08097 6.84099 6.65901C6.41903 6.23705 5.84674 6 5.25 6V6Z" fill="currentColor"></path><path d="M19.3257 16.1407C19.3471 16.124 19.3643 16.1027 19.3762 16.0783C19.3881 16.0539 19.3943 16.0272 19.3943 16.0001C19.3943 15.973 19.3881 15.9462 19.3762 15.9219C19.3643 15.8975 19.3471 15.8762 19.3257 15.8595L16.1628 13.3595C16.0467 13.2679 15.8748 13.3505 15.8748 13.5001V15.1541H8.32127C8.22306 15.1541 8.1427 15.2345 8.1427 15.3327V16.672C8.1427 16.7702 8.22306 16.8505 8.32127 16.8505H15.8726V18.5001C15.8726 18.6496 16.0445 18.7322 16.1606 18.6407L19.3257 16.1407Z" fill="currentColor"></path></svg>