<svg width="1em" height="1em" viewBox="0 0 20 20" fill="none" xmlns="http://www.w3.org/2000/svg"><path fill-rule="evenodd" clip-rule="evenodd" d="M14.4643 2.67854H18.2143C18.6094 2.67854 18.9286 2.99774 18.9286 3.39282V11H17.3215V8.83925H2.67862V17.3214H12V18.9285H1.78576C1.39067 18.9285 1.07147 18.6093 1.07147 18.2143V3.39282C1.07147 2.99774 1.39067 2.67854 1.78576 2.67854H5.53576V1.24997C5.53576 1.15175 5.61612 1.0714 5.71433 1.0714H6.96433C7.06254 1.0714 7.1429 1.15175 7.1429 1.24997V2.67854H12.8572V1.24997C12.8572 1.15175 12.9375 1.0714 13.0358 1.0714H14.2858C14.384 1.0714 14.4643 1.15175 14.4643 1.24997V2.67854ZM2.67862 4.28568V7.3214H17.3215V4.28568H14.4643V5.35711C14.4643 5.45532 14.384 5.53568 14.2858 5.53568H13.0358C12.9375 5.53568 12.8572 5.45532 12.8572 5.35711V4.28568H7.1429V5.35711C7.1429 5.45532 7.06254 5.53568 6.96433 5.53568H5.71433C5.61612 5.53568 5.53576 5.45532 5.53576 5.35711V4.28568H2.67862Z" fill="currentColor"></path><path d="M19.3257 14.4617C19.3471 14.445 19.3643 14.4236 19.3762 14.3993C19.3881 14.3749 19.3943 14.3482 19.3943 14.3211C19.3943 14.294 19.3881 14.2672 19.3762 14.2429C19.3643 14.2185 19.3471 14.1971 19.3257 14.1804L16.1628 11.6804C16.0467 11.5889 15.8748 11.6715 15.8748 11.8211V13.4751H8.32127C8.22306 13.4751 8.1427 13.5554 8.1427 13.6537V14.9929C8.1427 15.0912 8.22306 15.1715 8.32127 15.1715L15.8726 15.1715V16.8211C15.8726 16.9706 16.0445 17.0532 16.1606 16.9617L19.3257 14.4617Z" fill="currentColor"></path></svg>