<svg width="1em" height="1em" fill="none" xmlns="http://www.w3.org/2000/svg" viewBox="0 0 20 20"><path d="M18.2143 2.6785h-3.75V1.25a.179.179 0 00-.1785-.1786h-1.25a.179.179 0 00-.1786.1786v1.4285H7.1429V1.25a.179.179 0 00-.1786-.1786h-1.25a.179.179 0 00-.1785.1786v1.4285h-3.75a.7135.7135 0 00-.7143.7143v14.8215c0 .395.3192.7142.7143.7142h16.4285a.7135.7135 0 00.7143-.7142V3.3928a.7135.7135 0 00-.7143-.7143zm-.8928 14.6429H2.6786V8.8392h14.6429v8.4822zm-14.6429-10V4.2857h2.8572V5.357a.179.179 0 00.1785.1786h1.25a.1791.1791 0 00.1786-.1786V4.2857h5.7143V5.357a.179.179 0 00.1786.1786h1.25a.179.179 0 00.1785-.1786V4.2857h2.8572v3.0357H2.6786z" fill="currentColor"></path><g clip-path="url(#clip0)"><circle cx="15" cy="15" r="3" fill="#fff"></circle><path d="M15 10c-2.7612 0-5 2.2388-5 5s2.2388 5 5 5 5-2.2388 5-5-2.2388-5-5-5zm1.846 6.8996l-.7366-.0034L15 15.5737l-1.1083 1.3214-.7377.0033a.0888.0888 0 01-.0893-.0892.0929.0929 0 01.0212-.0581l1.452-1.7299-1.452-1.7288a.0935.0935 0 01-.0212-.058.0896.0896 0 01.0893-.0893l.7377.0033L15 14.471l1.1083-1.3214.7366-.0034a.0889.0889 0 01.0893.0893.0927.0927 0 01-.0213.058l-1.4497 1.7288 1.4509 1.7299a.093.093 0 01.0212.0581.0896.0896 0 01-.0893.0893z" fill="#FF5353"></path></g><defs><clipPath id="clip0"><path fill="#fff" transform="translate(10 10)" d="M0 0h10v10H0z"></path></clipPath></defs></svg>